<svg width="15" height="14" viewBox="0 0 15 14" fill="none" xmlns="http://www.w3.org/2000/svg">
<path d="M14.5849 3.22308C14.3615 2.70977 14.0394 2.24461 13.6365 1.85365C13.2333 1.46152 12.758 1.1499 12.2363 0.93573C11.6954 0.712772 11.1152 0.59865 10.5295 0.599987C9.70772 0.599987 8.90596 0.823264 8.20921 1.24501C8.04253 1.3459 7.88418 1.45671 7.73416 1.57745C7.58414 1.45671 7.42579 1.3459 7.2591 1.24501C6.56236 0.823264 5.7606 0.599987 4.93884 0.599987C4.3471 0.599987 3.7737 0.712453 3.23198 0.93573C2.70858 1.15074 2.23686 1.46002 1.83181 1.85365C1.42843 2.24417 1.10619 2.70944 0.883373 3.22308C0.65168 3.75729 0.533333 4.32458 0.533333 4.90841C0.533333 5.45916 0.646679 6.03307 0.871705 6.6169C1.06006 7.1048 1.33009 7.61089 1.67513 8.12195C2.22186 8.93071 2.97361 9.7742 3.90705 10.6293C5.4539 12.0467 6.98574 13.0258 7.05075 13.0655L7.44579 13.3169C7.62081 13.4277 7.84584 13.4277 8.02086 13.3169L8.4159 13.0655C8.48091 13.0241 10.0111 12.0467 11.5596 10.6293C12.493 9.7742 13.2448 8.93071 13.7915 8.12195C14.1366 7.61089 14.4083 7.1048 14.5949 6.6169C14.82 6.03307 14.9333 5.45916 14.9333 4.90841C14.935 4.32458 14.8166 3.75729 14.5849 3.22308Z" fill="#FF8585"/>
</svg>
