<svg width="40" height="40" viewBox="0 0 40 40" fill="none" xmlns="http://www.w3.org/2000/svg">
<g filter="url(#filter0_d_60_135)">
<rect x="4" width="32" height="32" rx="7" fill="#FEF0F0"/>
<path d="M26.5849 12.2231C26.3615 11.7098 26.0394 11.2446 25.6365 10.8536C25.2333 10.4615 24.758 10.1499 24.2363 9.93573C23.6954 9.71277 23.1152 9.59865 22.5295 9.59999C21.7077 9.59999 20.906 9.82326 20.2092 10.245C20.0425 10.3459 19.8842 10.4567 19.7342 10.5774C19.5841 10.4567 19.4258 10.3459 19.2591 10.245C18.5624 9.82326 17.7606 9.59999 16.9388 9.59999C16.3471 9.59999 15.7737 9.71245 15.232 9.93573C14.7086 10.1507 14.2369 10.46 13.8318 10.8536C13.4284 11.2442 13.1062 11.7094 12.8834 12.2231C12.6517 12.7573 12.5333 13.3246 12.5333 13.9084C12.5333 14.4592 12.6467 15.0331 12.8717 15.6169C13.0601 16.1048 13.3301 16.6109 13.6751 17.1219C14.2219 17.9307 14.9736 18.7742 15.9071 19.6293C17.4539 21.0467 18.9857 22.0258 19.0507 22.0655L19.4458 22.3169C19.6208 22.4277 19.8458 22.4277 20.0209 22.3169L20.4159 22.0655C20.4809 22.0241 22.0111 21.0467 23.5596 19.6293C24.493 18.7742 25.2448 17.9307 25.7915 17.1219C26.1366 16.6109 26.4083 16.1048 26.5949 15.6169C26.82 15.0331 26.9333 14.4592 26.9333 13.9084C26.935 13.3246 26.8166 12.7573 26.5849 12.2231Z" fill="#FF8585"/>
</g>
<defs>
<filter id="filter0_d_60_135" x="0" y="0" width="40" height="40" filterUnits="userSpaceOnUse" color-interpolation-filters="sRGB">
<feFlood flood-opacity="0" result="BackgroundImageFix"/>
<feColorMatrix in="SourceAlpha" type="matrix" values="0 0 0 0 0 0 0 0 0 0 0 0 0 0 0 0 0 0 127 0" result="hardAlpha"/>
<feOffset dy="4"/>
<feGaussianBlur stdDeviation="2"/>
<feComposite in2="hardAlpha" operator="out"/>
<feColorMatrix type="matrix" values="0 0 0 0 0 0 0 0 0 0 0 0 0 0 0 0 0 0 0.25 0"/>
<feBlend mode="normal" in2="BackgroundImageFix" result="effect1_dropShadow_60_135"/>
<feBlend mode="normal" in="SourceGraphic" in2="effect1_dropShadow_60_135" result="shape"/>
</filter>
</defs>
</svg>
